<?xml version="1.0" encoding="UTF-8" standalone="no"?>
<!DOCTYPE svg PUBLIC "-//W3C//DTD SVG 1.1//EN" "http://www.w3.org/Graphics/SVG/1.1/DTD/svg11.dtd">
<svg width="100%" height="100%" viewBox="0 0 144 144" version="1.1" xmlns="http://www.w3.org/2000/svg" xmlns:xlink="http://www.w3.org/1999/xlink" xml:space="preserve" xmlns:serif="http://www.serif.com/" style="fill-rule:evenodd;clip-rule:evenodd;stroke-linejoin:round;stroke-miterlimit:2;">
    <g id="Icon">
        <path id="Path" d="M63.351,26.996C65.466,28.222 66.17,30.972 64.923,33.14L27.297,98.545C26.05,100.712 23.324,101.475 21.209,100.25C19.094,99.024 18.39,96.274 19.637,94.106L57.264,28.702C58.51,26.534 61.236,25.771 63.351,26.996Z" style="fill-rule:nonzero;"/>
        <path id="Path-Copy-4" d="M119.656,77.062C121.771,78.287 122.475,81.038 121.228,83.205L98.652,122.448C97.405,124.615 94.68,125.379 92.565,124.153C90.45,122.928 89.746,120.177 90.992,118.01L113.568,78.767C114.815,76.6 117.541,75.836 119.656,77.062Z" style="fill-rule:nonzero;"/>
        <path id="Combined-Shape" d="M120.779,32.345C122.924,33.583 123.655,36.332 122.412,38.484L109.297,61.201C112.916,65.418 113.668,71.637 110.722,76.739C106.995,83.195 98.758,85.418 92.325,81.704C85.891,77.99 83.698,69.745 87.425,63.289C90.357,58.211 96.078,55.752 101.517,56.74L114.647,34C115.889,31.848 118.635,31.107 120.779,32.345ZM95.191,67.772C93.949,69.924 94.68,72.673 96.824,73.911C98.969,75.149 101.714,74.408 102.957,72.256C104.153,70.184 103.52,67.561 101.56,66.263C101.465,66.219 101.372,66.17 101.281,66.117C101.201,66.071 101.122,66.022 101.046,65.972C98.948,64.945 96.381,65.712 95.191,67.772Z" style="fill-rule:nonzero;"/>
        <path id="Combined-Shape1" serif:id="Combined-Shape" d="M96.935,28.89C99.079,30.128 99.811,32.876 98.568,35.028L83.398,61.306C83.324,61.482 83.239,61.655 83.141,61.824C78.802,69.339 79.566,74.149 84.906,84.533C85.137,84.982 85.137,84.982 85.37,85.435C88.383,91.289 89.657,94.313 90.36,98.276C91.326,103.716 90.41,109.014 87.29,114.418L79.485,127.935C78.243,130.087 75.497,130.828 73.353,129.59C71.208,128.352 70.477,125.604 71.72,123.452L79.524,109.934C83.195,103.575 82.458,99.42 77.39,89.575C77.159,89.125 77.159,89.125 76.925,88.67C74.969,84.868 73.701,82.136 72.858,79.558L53.572,112.963C52.33,115.116 49.584,115.857 47.44,114.618C45.295,113.38 44.564,110.632 45.806,108.48L90.802,30.545C92.045,28.393 94.791,27.652 96.935,28.89Z" style="fill-rule:nonzero;"/>
        <path id="Path-Copy" d="M87.405,14.772C89.52,15.997 90.224,18.748 88.977,20.915L32.537,119.022C31.291,121.19 28.565,121.953 26.45,120.728C24.335,119.502 23.631,116.752 24.878,114.584L81.318,16.477C82.564,14.31 85.29,13.546 87.405,14.772Z" style="fill-rule:nonzero;"/>
    </g>
</svg>
