<?xml version="1.0" encoding="UTF-8" standalone="no"?>
<!DOCTYPE svg PUBLIC "-//W3C//DTD SVG 1.1//EN" "http://www.w3.org/Graphics/SVG/1.1/DTD/svg11.dtd">
<svg width="100%" height="100%" viewBox="0 0 360 70" version="1.1" xmlns="http://www.w3.org/2000/svg" xmlns:xlink="http://www.w3.org/1999/xlink" xml:space="preserve" xmlns:serif="http://www.serif.com/" style="fill-rule:evenodd;clip-rule:evenodd;stroke-linejoin:round;stroke-miterlimit:2;">
    <path d="M72.344,30.379C72.895,29.53 73.537,28.835 74.272,28.295C75.578,27.335 77.156,26.854 79.008,26.854C80.545,26.854 81.923,27.176 83.141,27.82C84.36,28.463 85.323,29.419 86.032,30.686C86.741,31.954 87.095,33.531 87.095,35.418L87.095,48.866L82.622,48.866L82.622,35.951C82.622,34.223 82.196,32.919 81.342,32.036C80.488,31.154 79.282,30.713 77.726,30.713C76.716,30.713 75.805,30.911 74.992,31.306C74.18,31.702 73.536,32.321 73.059,33.163C72.582,34.006 72.344,35.1 72.344,36.445L72.344,48.866L67.871,48.866L67.871,18.406L72.344,18.406L72.344,30.379ZM134.134,30.518C134.704,29.605 135.376,28.864 136.151,28.295C137.456,27.335 139.035,26.854 140.887,26.854C142.424,26.854 143.802,27.176 145.02,27.82C146.238,28.463 147.202,29.419 147.911,30.686C148.619,31.954 148.974,33.531 148.974,35.418L148.974,48.866L144.501,48.866L144.501,35.951C144.501,34.223 144.074,32.919 143.22,32.036C142.366,31.154 141.161,30.713 139.605,30.713C138.595,30.713 137.684,30.911 136.871,31.306C136.059,31.702 135.414,32.321 134.937,33.163C134.461,34.006 134.222,35.1 134.222,36.445L134.222,48.866L129.75,48.866L129.75,27.278L134.134,27.278L134.134,30.518ZM157.311,39.246C157.356,40.437 157.599,41.5 158.039,42.435C158.53,43.477 159.245,44.29 160.186,44.875C161.127,45.46 162.268,45.752 163.608,45.752C164.585,45.752 165.447,45.607 166.193,45.318C166.94,45.028 167.561,44.623 168.056,44.104C168.55,43.584 168.904,42.982 169.117,42.299L173.414,42.299C173.134,43.693 172.534,44.919 171.612,45.977C170.691,47.036 169.537,47.864 168.151,48.461C166.765,49.058 165.23,49.356 163.547,49.356C161.339,49.356 159.44,48.873 157.851,47.907C156.262,46.94 155.042,45.608 154.189,43.91C153.337,42.212 152.911,40.277 152.911,38.105C152.911,35.909 153.354,33.959 154.239,32.257C155.125,30.555 156.351,29.217 157.916,28.245C159.481,27.273 161.278,26.787 163.309,26.787C164.891,26.787 166.322,27.059 167.602,27.603C168.881,28.147 169.98,28.921 170.896,29.926C171.812,30.931 172.516,32.122 173.006,33.499C173.496,34.876 173.741,36.398 173.741,38.065L173.741,39.246L157.311,39.246ZM157.352,35.975L169.384,35.975C169.289,35.044 169.056,34.212 168.686,33.479C168.187,32.493 167.483,31.732 166.575,31.194C165.666,30.657 164.592,30.388 163.351,30.388C162.124,30.388 161.058,30.657 160.154,31.194C159.251,31.732 158.549,32.493 158.051,33.479C157.68,34.212 157.447,35.044 157.352,35.975ZM265.841,39.074C265.891,40.368 266.152,41.526 266.625,42.549C267.154,43.694 267.926,44.59 268.941,45.237C269.957,45.884 271.191,46.208 272.644,46.208C273.701,46.208 274.632,46.048 275.436,45.728C276.24,45.407 276.906,44.961 277.435,44.389C277.964,43.816 278.341,43.155 278.567,42.406L282.163,42.406C281.881,43.782 281.296,44.992 280.408,46.034C279.519,47.077 278.408,47.891 277.076,48.477C275.743,49.063 274.265,49.356 272.644,49.356C270.457,49.356 268.592,48.872 267.048,47.905C265.504,46.937 264.322,45.605 263.504,43.908C262.686,42.212 262.277,40.28 262.277,38.113C262.277,35.919 262.708,33.97 263.568,32.266C264.428,30.563 265.62,29.224 267.143,28.249C268.666,27.275 270.415,26.787 272.39,26.787C273.941,26.787 275.341,27.06 276.589,27.605C277.837,28.15 278.906,28.927 279.794,29.936C280.683,30.944 281.363,32.14 281.836,33.523C282.308,34.907 282.544,36.436 282.544,38.113L282.544,39.074L265.841,39.074ZM265.88,36.089L278.942,36.089C278.842,35.048 278.586,34.118 278.176,33.298C277.633,32.215 276.868,31.377 275.88,30.784C274.893,30.191 273.73,29.895 272.39,29.895C271.064,29.895 269.911,30.191 268.931,30.784C267.951,31.377 267.189,32.215 266.646,33.298C266.235,34.118 265.98,35.048 265.88,36.089ZM344.149,30.426C344.726,29.505 345.407,28.773 346.19,28.229C347.495,27.322 349.029,26.869 350.792,26.869C352.301,26.869 353.676,27.186 354.917,27.82C356.158,28.453 357.149,29.404 357.889,30.672C358.63,31.939 359,33.534 359,35.455L359,48.866L355.404,48.866L355.404,35.7C355.404,33.833 354.942,32.426 354.018,31.479C353.094,30.532 351.793,30.058 350.115,30.058C349.029,30.058 348.041,30.27 347.153,30.692C346.264,31.114 345.556,31.779 345.027,32.685C344.498,33.591 344.234,34.774 344.234,36.232L344.234,48.866L340.637,48.866L340.637,27.278L344.149,27.278L344.149,30.426ZM98.941,49.204C97.458,49.204 96.133,48.961 94.968,48.475C93.802,47.99 92.88,47.263 92.203,46.294C91.525,45.326 91.186,44.126 91.186,42.695C91.186,41.46 91.431,40.448 91.92,39.66C92.409,38.873 93.069,38.249 93.898,37.789C94.727,37.328 95.672,36.978 96.733,36.738C97.794,36.498 98.889,36.314 100.018,36.188C101.422,36.017 102.532,35.879 103.346,35.775C104.16,35.671 104.74,35.508 105.087,35.285C105.434,35.062 105.607,34.691 105.607,34.173L105.607,33.991C105.607,33.286 105.429,32.664 105.073,32.125C104.717,31.586 104.202,31.163 103.527,30.854C102.853,30.546 102.041,30.392 101.091,30.392C100.148,30.392 99.313,30.542 98.588,30.843C97.862,31.144 97.285,31.555 96.857,32.077C96.429,32.599 96.187,33.195 96.13,33.863L91.735,33.863C91.816,32.485 92.251,31.271 93.039,30.223C93.827,29.174 94.912,28.35 96.294,27.752C97.676,27.154 99.295,26.854 101.152,26.854C102.526,26.854 103.762,27.024 104.861,27.364C105.96,27.703 106.894,28.189 107.662,28.821C108.43,29.452 109.017,30.211 109.422,31.097C109.827,31.983 110.03,32.972 110.03,34.064L110.03,48.866L105.63,48.866L105.63,45.807L105.546,45.807C105.237,46.386 104.812,46.935 104.27,47.455C103.727,47.975 103.024,48.396 102.161,48.719C101.297,49.042 100.224,49.204 98.941,49.204ZM99.852,45.74C101.164,45.74 102.248,45.51 103.102,45.05C103.957,44.591 104.59,43.986 105.003,43.237C105.416,42.488 105.623,41.671 105.623,40.784L105.623,38.262C105.469,38.375 105.218,38.482 104.87,38.584C104.521,38.686 104.1,38.784 103.607,38.879C103.113,38.974 102.58,39.066 102.007,39.155C101.434,39.244 100.852,39.329 100.26,39.408C99.451,39.514 98.693,39.694 97.988,39.946C97.283,40.199 96.713,40.549 96.28,40.997C95.846,41.445 95.629,42.038 95.629,42.775C95.629,43.388 95.801,43.918 96.146,44.362C96.49,44.807 96.979,45.148 97.611,45.384C98.244,45.621 98.991,45.74 99.852,45.74ZM115.056,48.866L115.056,27.278L119.344,27.278L119.344,30.767L119.421,30.767C119.83,29.588 120.476,28.668 121.36,28.004C122.243,27.341 123.396,27.01 124.817,27.01C125.157,27.01 125.469,27.021 125.755,27.043C126.04,27.066 126.271,27.088 126.447,27.11L126.447,31.138C126.278,31.104 125.974,31.062 125.534,31.012C125.094,30.962 124.611,30.936 124.087,30.936C123.259,30.936 122.497,31.122 121.802,31.492C121.107,31.862 120.555,32.429 120.144,33.193C119.734,33.956 119.529,34.928 119.529,36.108L119.529,48.866L115.056,48.866ZM185.874,49.367C184.169,49.367 182.633,49.104 181.265,48.576C179.898,48.049 178.795,47.26 177.957,46.21C177.119,45.16 176.645,43.857 176.536,42.299L180.951,42.299C181.073,43.465 181.547,44.363 182.373,44.994C183.2,45.626 184.336,45.941 185.782,45.941C187.204,45.941 188.323,45.661 189.14,45.102C189.957,44.543 190.366,43.834 190.366,42.975C190.366,42.241 190.075,41.652 189.492,41.208C188.91,40.764 188.132,40.44 187.158,40.237L183.455,39.449C181.352,38.993 179.757,38.249 178.672,37.214C177.587,36.18 177.044,34.863 177.044,33.264C177.044,31.991 177.4,30.869 178.112,29.897C178.824,28.925 179.823,28.166 181.109,27.619C182.395,27.072 183.892,26.799 185.6,26.799C187.278,26.799 188.769,27.086 190.071,27.662C191.374,28.237 192.403,29.051 193.158,30.104C193.914,31.157 194.313,32.411 194.355,33.867L190.089,33.867C190.075,32.815 189.665,31.944 188.86,31.253C188.054,30.563 186.987,30.217 185.661,30.217C184.392,30.217 183.383,30.504 182.633,31.077C181.884,31.65 181.509,32.352 181.509,33.183C181.509,33.915 181.796,34.506 182.369,34.957C182.943,35.408 183.729,35.744 184.727,35.965L188.536,36.775C190.718,37.246 192.321,37.966 193.344,38.936C194.367,39.905 194.878,41.173 194.878,42.739C194.878,44.109 194.489,45.29 193.711,46.282C192.933,47.274 191.865,48.036 190.508,48.569C189.15,49.101 187.605,49.367 185.874,49.367ZM207.093,49.367C205.387,49.367 203.851,49.104 202.483,48.576C201.116,48.049 200.013,47.26 199.175,46.21C198.337,45.16 197.863,43.857 197.754,42.299L202.169,42.299C202.291,43.465 202.765,44.363 203.591,44.994C204.418,45.626 205.554,45.941 207,45.941C208.422,45.941 209.541,45.661 210.358,45.102C211.175,44.543 211.584,43.834 211.584,42.975C211.584,42.241 211.293,41.652 210.71,41.208C210.128,40.764 209.35,40.44 208.376,40.237L204.673,39.449C202.57,38.993 200.975,38.249 199.89,37.214C198.805,36.18 198.262,34.863 198.262,33.264C198.262,31.991 198.618,30.869 199.33,29.897C200.042,28.925 201.041,28.166 202.327,27.619C203.613,27.072 205.11,26.799 206.818,26.799C208.496,26.799 209.987,27.086 211.289,27.662C212.592,28.237 213.621,29.051 214.376,30.104C215.132,31.157 215.531,32.411 215.573,33.867L211.307,33.867C211.293,32.815 210.883,31.944 210.078,31.253C209.272,30.563 208.205,30.217 206.879,30.217C205.61,30.217 204.601,30.504 203.851,31.077C203.102,31.65 202.727,32.352 202.727,33.183C202.727,33.915 203.014,34.506 203.587,34.957C204.161,35.408 204.947,35.744 205.945,35.965L209.754,36.775C211.936,37.246 213.539,37.966 214.562,38.936C215.585,39.905 216.096,41.173 216.096,42.739C216.096,44.109 215.707,45.29 214.929,46.282C214.151,47.274 213.084,48.036 211.726,48.569C210.368,49.101 208.824,49.367 207.093,49.367ZM247.469,49.275C245.536,49.275 243.84,48.801 242.381,47.854C240.921,46.907 239.789,45.591 238.985,43.908C238.181,42.225 237.779,40.28 237.779,38.072C237.779,35.85 238.181,33.898 238.985,32.215C239.789,30.532 240.921,29.22 242.381,28.28C243.84,27.339 245.536,26.869 247.469,26.869C248.442,26.869 249.369,27.002 250.251,27.268C251.132,27.534 251.932,27.932 252.652,28.464C253.371,28.995 253.97,29.663 254.45,30.467L254.492,30.467L254.492,18.406L258.089,18.406L258.089,48.866L254.577,48.866L254.577,45.595L254.535,45.595C253.999,46.426 253.364,47.114 252.631,47.66C251.897,48.205 251.097,48.61 250.229,48.876C249.362,49.142 248.442,49.275 247.469,49.275ZM248.019,46.147C249.401,46.147 250.6,45.813 251.615,45.145C252.631,44.477 253.413,43.537 253.963,42.324C254.513,41.111 254.788,39.694 254.788,38.072C254.788,36.436 254.513,35.012 253.963,33.799C253.413,32.586 252.631,31.646 251.615,30.978C250.6,30.31 249.401,29.976 248.019,29.976C246.735,29.976 245.596,30.283 244.602,30.896C243.608,31.51 242.829,32.416 242.264,33.615C241.7,34.815 241.418,36.3 241.418,38.072C241.418,39.83 241.7,41.309 242.264,42.508C242.829,43.707 243.608,44.614 244.602,45.227C245.596,45.84 246.735,46.147 248.019,46.147ZM294.434,49.356C292.84,49.356 291.394,49.104 290.097,48.6C288.799,48.096 287.749,47.329 286.945,46.3C286.141,45.271 285.689,43.973 285.591,42.406L289.145,42.406C289.272,43.687 289.779,44.668 290.668,45.349C291.557,46.031 292.784,46.372 294.349,46.372C295.9,46.372 297.124,46.058 298.019,45.431C298.915,44.804 299.363,44.014 299.363,43.06C299.363,42.242 299.053,41.588 298.432,41.097C297.811,40.607 297.001,40.252 295.999,40.034L292.403,39.217C290.329,38.74 288.76,37.99 287.696,36.968C286.631,35.946 286.098,34.651 286.098,33.084C286.098,31.857 286.44,30.77 287.124,29.823C287.808,28.876 288.76,28.133 289.98,27.595C291.2,27.057 292.607,26.787 294.201,26.787C295.752,26.787 297.145,27.07 298.379,27.636C299.613,28.201 300.593,29.002 301.32,30.038C302.046,31.074 302.43,32.307 302.473,33.738L298.961,33.738C298.947,32.593 298.51,31.646 297.649,30.896C296.789,30.147 295.64,29.772 294.201,29.772C292.833,29.772 291.74,30.092 290.922,30.733C290.104,31.373 289.695,32.157 289.695,33.084C289.695,33.902 290.005,34.559 290.626,35.057C291.246,35.554 292.092,35.925 293.164,36.171L296.761,36.988C298.904,37.479 300.477,38.212 301.478,39.186C302.48,40.16 302.98,41.424 302.98,42.978C302.98,44.314 302.607,45.459 301.859,46.413C301.112,47.367 300.093,48.096 298.802,48.6C297.512,49.104 296.056,49.356 294.434,49.356ZM307.212,48.866L307.212,27.278L310.808,27.278L310.808,48.866L307.212,48.866ZM309.01,23.067C308.333,23.067 307.755,22.835 307.275,22.372C306.795,21.908 306.556,21.35 306.556,20.695C306.556,20.041 306.795,19.482 307.275,19.019C307.755,18.556 308.333,18.324 309.01,18.324C309.687,18.324 310.265,18.556 310.744,19.019C311.224,19.482 311.464,20.041 311.464,20.695C311.464,21.35 311.224,21.908 310.744,22.372C310.265,22.835 309.687,23.067 309.01,23.067ZM325.49,57.697C323.811,57.697 322.299,57.448 320.952,56.951C319.605,56.453 318.505,55.717 317.652,54.743C316.798,53.769 316.28,52.573 316.097,51.155L319.778,51.155C319.989,51.932 320.363,52.576 320.899,53.087C321.435,53.598 322.094,53.983 322.877,54.242C323.66,54.501 324.531,54.631 325.49,54.631C327.436,54.631 328.966,54.13 330.081,53.128C331.195,52.126 331.752,50.706 331.752,48.866L331.752,45.595L331.731,45.595C331.181,46.426 330.546,47.114 329.827,47.66C329.107,48.205 328.318,48.61 327.457,48.876C326.597,49.142 325.673,49.275 324.686,49.275C322.754,49.275 321.058,48.801 319.598,47.854C318.138,46.907 317.006,45.591 316.203,43.908C315.399,42.225 314.997,40.28 314.997,38.072C314.997,35.85 315.399,33.898 316.203,32.215C317.006,30.532 318.138,29.22 319.598,28.28C321.058,27.339 322.754,26.869 324.686,26.869C325.659,26.869 326.586,26.999 327.468,27.258C328.349,27.517 329.16,27.925 329.901,28.484C330.641,29.043 331.265,29.765 331.773,30.651L331.794,30.651L331.794,27.278L335.306,27.278L335.306,48.866C335.306,50.992 334.851,52.702 333.941,53.997C333.032,55.292 331.829,56.232 330.334,56.818C328.839,57.404 327.225,57.697 325.49,57.697ZM325.236,46.147C326.618,46.147 327.817,45.813 328.832,45.145C329.848,44.477 330.631,43.537 331.181,42.324C331.731,41.111 332.006,39.694 332.006,38.072C332.006,36.436 331.731,35.012 331.181,33.799C330.631,32.586 329.848,31.646 328.832,30.978C327.817,30.31 326.618,29.976 325.236,29.976C323.953,29.976 322.814,30.283 321.819,30.896C320.825,31.51 320.046,32.416 319.482,33.615C318.918,34.815 318.635,36.3 318.635,38.072C318.635,39.83 318.918,41.309 319.482,42.508C320.046,43.707 320.825,44.614 321.819,45.227C322.814,45.84 323.953,46.147 325.236,46.147ZM226.628,48.866C224.634,48.866 223.018,47.304 223.018,45.377C223.018,43.45 224.634,41.888 226.628,41.888C228.622,41.888 230.239,43.45 230.239,45.377C230.239,47.304 228.622,48.866 226.628,48.866Z" style="fill:white;"/>
    <g id="Path" transform="matrix(0.866025,0.5,-0.5,0.866025,15.772702,-2.145924)">
        <path d="M11.891,8.999C13.009,8.999 13.916,9.928 13.916,11.074L13.916,45.645C13.916,46.791 13.009,47.719 11.891,47.719C10.772,47.719 9.866,46.791 9.866,45.645L9.866,11.074C9.866,9.928 10.772,8.999 11.891,8.999Z" style="fill:rgb(64,192,87);fill-rule:nonzero;"/>
    </g>
    <g id="Path-Copy-4" transform="matrix(0.866025,0.5,-0.5,0.866025,28.1254,-14.498623)">
        <path d="M41.118,32.788C42.236,32.788 43.142,33.716 43.142,34.862L43.142,55.605C43.142,56.75 42.236,57.679 41.118,57.679C39.999,57.679 39.093,56.75 39.093,55.605L39.093,34.862C39.093,33.716 39.999,32.788 41.118,32.788Z" style="fill:rgb(122,80,243);fill-rule:nonzero;"/>
    </g>
    <g id="Combined-Shape" transform="matrix(0.866025,0.5,-0.5,0.866025,18.211038,-17.311919)">
        <path d="M41.41,12.29C42.547,12.29 43.468,13.211 43.468,14.348L43.469,26.364C45.867,27.212 47.585,29.499 47.585,32.188C47.585,35.598 44.82,38.363 41.41,38.363C38,38.363 35.235,35.598 35.235,32.188C35.235,29.499 36.953,27.212 39.351,26.364L39.352,14.348C39.352,13.211 40.273,12.29 41.41,12.29ZM41.41,30.129C40.273,30.129 39.352,31.051 39.352,32.188C39.352,33.324 40.273,34.246 41.41,34.246C42.547,34.246 43.468,33.324 43.468,32.188C43.468,31.051 42.547,30.129 41.41,30.129Z" style="fill:rgb(251,82,82);fill-rule:nonzero;"/>
    </g>
    <g id="Combined-Shape1" serif:id="Combined-Shape" transform="matrix(0.866025,0.5,-0.5,0.866025,21.97811,-11.033422)">
        <path d="M24.716,12.853C25.853,12.853 26.775,13.774 26.775,14.911L26.775,29.051C26.775,33.021 28.183,34.752 32.69,37.644C32.884,37.769 32.884,37.769 33.081,37.895C35.623,39.525 36.823,40.432 38.013,41.841C39.646,43.776 40.497,46.084 40.497,48.938L40.497,56.079C40.497,57.216 39.576,58.137 38.439,58.137C37.302,58.137 36.381,57.216 36.381,56.079L36.381,48.938C36.381,45.58 35.134,44.102 30.859,41.361C30.663,41.235 30.663,41.235 30.466,41.109C28.826,40.056 27.698,39.267 26.774,38.444L26.775,56.079C26.775,57.216 25.853,58.137 24.716,58.137C23.58,58.137 22.658,57.216 22.658,56.079L22.658,14.911C22.658,13.774 23.58,12.853 24.716,12.853Z" style="fill:rgb(251,126,21);fill-rule:nonzero;"/>
    </g>
    <g id="Path-Copy" transform="matrix(0.866025,0.5,-0.5,0.866025,17.610581,-5.249183)">
        <path d="M18.6,2.234C19.719,2.234 20.625,3.163 20.625,4.309L20.625,56.166C20.625,57.311 19.719,58.24 18.6,58.24C17.482,58.24 16.575,57.311 16.575,56.166L16.575,4.309C16.575,3.163 17.482,2.234 18.6,2.234Z" style="fill:rgb(252,196,25);fill-rule:nonzero;"/>
    </g>
</svg>
