<?xml version="1.0" encoding="UTF-8"?>
<svg width="144px" height="144px" viewBox="0 0 144 144" version="1.1" xmlns="http://www.w3.org/2000/svg" xmlns:xlink="http://www.w3.org/1999/xlink">
    <title>Icon</title>
    <defs>
        <path d="M0,0 L144,0 L144,144 L0,144 L0,0 Z" id="path-1"></path>
    </defs>
    <g id="Icon" stroke="none" fill="none" xlink:href="#path-1" fill-rule="nonzero">
        <path d="M63.3510182,26.9963635 C65.4661586,28.2219265 66.1700617,30.9724033 64.923227,33.1397299 L27.296666,98.5446007 C26.0498264,100.711924 23.3244049,101.475379 21.2092591,100.249825 C19.0941186,99.0242618 18.3902155,96.273785 19.6370502,94.1064584 L57.2636112,28.7015876 C58.5104508,26.5342638 61.2358724,25.7708098 63.3510182,26.9963635 Z" id="Path" fill="#40C057"></path>
        <path d="M119.655796,77.0618325 C121.770936,78.2873954 122.474839,81.0378722 121.228005,83.2051989 L98.65207,122.448122 C97.4052303,124.615446 94.6798088,125.3789 92.564663,124.153347 C90.4495225,122.927784 89.7456195,120.177307 90.9924542,118.00998 L113.568389,78.7670566 C114.815228,76.5997328 117.54065,75.8362787 119.655796,77.0618325 Z" id="Path-Copy-4" fill="#7A50F3"></path>
        <path d="M120.779138,32.3451635 C122.923568,33.5832513 123.654705,36.3315594 122.412177,38.4836816 L109.296552,61.2006084 C112.916329,65.4180602 113.668179,71.6370536 110.722493,76.7391306 C106.994908,83.1954971 98.7578892,85.418411 92.3245964,81.7041477 C85.8913037,77.9898844 83.6978941,69.7449599 87.4254791,63.2885933 C90.3570609,58.2109447 96.0777869,55.7517422 101.516725,56.7397344 L114.646505,34.0001692 C115.889034,31.848047 118.634707,31.1070757 120.779138,32.3451635 Z M95.1911504,67.7721058 C93.9486221,69.9242279 94.6797586,72.6725361 96.8241895,73.9106239 C98.9686204,75.1487116 101.714293,74.4077404 102.956822,72.2556182 C104.152645,70.1843921 103.52039,67.5609578 101.559583,66.2630052 C101.46486,66.21908 101.372334,66.1698889 101.280901,66.1171001 C101.200649,66.0707666 101.122376,66.022318 101.046112,65.9718648 C98.9482782,64.9446651 96.3807771,65.7116118 95.1911504,67.7721058 Z" id="Combined-Shape" fill="#FB5252"></path>
        <path d="M96.935049,28.8897046 C99.0794799,30.1277924 99.8106164,32.8761006 98.5680881,35.0282227 L83.3976728,61.3060473 C83.3240811,61.4817052 83.2385478,61.6546989 83.1408,61.8240031 C78.8020931,69.3388639 79.5657884,74.149011 84.9058209,84.5331249 C85.1368249,84.9819613 85.1368249,84.9819613 85.3699486,85.4346629 C88.3830574,91.2889672 89.6565685,94.3128172 90.3603092,98.2763322 C91.32617,103.716126 90.4096608,109.013834 87.289699,114.417766 L79.485345,127.935304 C78.2428167,130.087426 75.4971437,130.828397 73.3527128,129.590309 C71.2082819,128.352222 70.4771454,125.603913 71.7196737,123.451791 L79.5240277,109.934254 C83.1953132,103.575401 82.4575758,99.4204135 77.3901258,89.5746372 C77.1585769,89.1249949 77.1585769,89.1249949 76.9245959,88.6703739 C74.9693371,84.8682192 73.7006716,82.1355573 72.8577111,79.5578348 L53.5721574,112.963461 C52.329629,115.115583 49.5839561,115.856554 47.4395252,114.618467 C45.2950943,113.380379 44.5639577,110.632071 45.8064861,108.479949 L90.8024168,30.5447103 C92.0449451,28.3925882 94.7906181,27.6516169 96.935049,28.8897046 Z" id="Combined-Shape" fill="#FB7E15"></path>
        <path d="M87.4050061,14.7718022 C89.5201466,15.9973652 90.2240496,18.747842 88.9772149,20.9151686 L32.537371,119.022473 C31.2905314,121.189797 28.5651098,121.953251 26.449964,120.727697 C24.3348235,119.502134 23.6309205,116.751658 24.8777552,114.584331 L81.3175991,16.4770263 C82.5644387,14.3097025 85.2898603,13.5462485 87.4050061,14.7718022 Z" id="Path-Copy" fill="#FCC419"></path>
    </g>
</svg>