<?xml version="1.0" encoding="UTF-8"?>
<svg width="144px" height="144px" viewBox="0 0 144 144" version="1.1" xmlns="http://www.w3.org/2000/svg" xmlns:xlink="http://www.w3.org/1999/xlink">
    <title>Icon</title>
    <defs>
        <path d="M0,0 L144,0 L144,144 L0,144 L0,0 Z" id="path-1"></path>
    </defs>
    <g id="Icon" stroke="none" fill="none" xlink:href="#path-1" fill-rule="nonzero">
        <path d="M34.689338,10.1786438 C37.677593,10.1786438 40.1000523,12.6519976 40.1000523,15.7030341 L40.1000523,107.776205 C40.1000523,110.827241 37.677593,113.300595 34.689338,113.300595 C31.701083,113.300595 29.2786237,110.827241 29.2786237,107.776205 L29.2786237,15.7030341 C29.2786237,12.6519976 31.701083,10.1786438 34.689338,10.1786438 Z" id="Path" fill="#40C057" transform="translate(34.6893, 61.7396) rotate(30) translate(-34.6893, -61.7396)"></path>
        <path d="M112.786272,73.6825637 C115.774527,73.6825637 118.196986,76.1559174 118.196986,79.2069539 L118.196986,134.450856 C118.196986,137.501893 115.774527,139.975247 112.786272,139.975247 C109.798017,139.975247 107.375557,137.501893 107.375557,134.450856 L107.375557,79.2069539 C107.375557,76.1559174 109.798017,73.6825637 112.786272,73.6825637 Z" id="Path-Copy-4" fill="#7A50F3" transform="translate(112.7863, 106.8289) rotate(30) translate(-112.7863, -106.8289)"></path>
        <path d="M113.320063,18.9528434 C116.349695,18.9528434 118.805698,21.4088458 118.805698,24.4384783 L118.806051,56.4602967 C125.197686,58.7195807 129.776967,64.8153397 129.776967,71.9806472 C129.776967,81.0695447 122.40896,88.4375519 113.320063,88.4375519 C104.231165,88.4375519 96.8631581,81.0695447 96.8631581,71.9806472 C96.8631581,64.8149724 101.442909,58.7189555 107.835058,56.4599492 L107.834428,24.4384783 C107.834428,21.4088458 110.29043,18.9528434 113.320063,18.9528434 Z M113.320063,66.4950123 C110.29043,66.4950123 107.834428,68.9510147 107.834428,71.9806472 C107.834428,75.0102797 110.29043,77.4662821 113.320063,77.4662821 C116.349695,77.4662821 118.805698,75.0102797 118.805698,71.9806472 C118.805698,68.9510147 116.349695,66.4950123 113.320063,66.4950123 Z" id="Combined-Shape" fill="#FB5252" transform="translate(113.3201, 53.6952) rotate(30) translate(-113.3201, -53.6952)"></path>
        <path d="M68.8313316,20.4531793 C71.8609641,20.4531793 74.3169665,22.9091817 74.3169665,25.9388142 L74.3171493,63.6225215 C74.3171493,74.2015057 78.068994,78.814564 90.0798041,86.5230537 C90.5991529,86.8561249 90.5991529,86.8561249 91.1231123,87.1919849 C97.89719,91.5362959 101.096453,93.9526017 104.266838,97.7083269 C108.618086,102.862936 110.887866,109.014966 110.887866,116.622308 L110.887866,135.651512 C110.887866,138.681144 108.431863,141.137147 105.402231,141.137147 C102.372598,141.137147 99.9165959,138.681144 99.9165959,135.651512 L99.9165959,116.622308 C99.9165959,107.670685 96.5930545,103.733525 85.2004023,96.4272578 C84.6799832,96.0936679 84.6799832,96.0936679 84.1539411,95.7563039 C79.7838337,92.9515865 76.7781754,90.8486072 74.3167232,88.6559298 L74.3169665,135.651512 C74.3169665,138.681144 71.8609641,141.137147 68.8313316,141.137147 C65.8016991,141.137147 63.3456967,138.681144 63.3456967,135.651512 L63.3456967,25.9388142 C63.3456967,22.9091817 65.8016991,20.4531793 68.8313316,20.4531793 Z" id="Combined-Shape" fill="#FB7E15" transform="translate(87.1168, 80.7952) rotate(30) translate(-87.1168, -80.7952)"></path>
        <path d="M52.610554,-7.80867696 C55.598809,-7.80867696 58.0212683,-5.3353232 58.0212683,-2.28428671 L58.0212683,135.825469 C58.0212683,138.876506 55.598809,141.34986 52.610554,141.34986 C49.622299,141.34986 47.1998397,138.876506 47.1998397,135.825469 L47.1998397,-2.28428671 C47.1998397,-5.3353232 49.622299,-7.80867696 52.610554,-7.80867696 Z" id="Path-Copy" fill="#FCC419" transform="translate(52.6106, 66.7706) rotate(30) translate(-52.6106, -66.7706)"></path>
    </g>
</svg>